# xmcd
#
# Track frame offsets:
#	150
#	11489
#	22303
#	31273
#	44001
#	53766
#	66100
#	74931
#	84624
#	96741
#	111992
#	124265
#	136109
#	149392
#	165593
#	176483
#	187571
#	199589
#	211687
#	226387
#	236446
#	252385
#	265919
#	277397
#
# Disc length: 3856 seconds
#
# Revision: 1
# Processed by: cddbd v1.5.2PL0 Copyright (c) Steve Scherf et al.
# Submitted via: audiograbber 1.83.01
#
DISCID=6a0f0e18
DTITLE=Susan Mccann - The Blayney Years [CD1)
DYEAR=1900
DGENRE=
TTITLE0=Feeling Single Seeing Double
TTITLE1=It's Heaven Around Galway Bay
TTITLE2=Adios Farewell, Goodbye
TTITLE3=I Don't Wanna Play House
TTITLE4=Did You Ever Hear The Robin Sing?
TTITLE5=What I've Got In Mind
TTITLE6=Keep On The Sunnyside
TTITLE7=Wrong Road Again
TTITLE8=Coat Of Many Colours
TTITLE9=Where Is My Norah
TTITLE10=Sing Me An Old Fashioned Song
TTITLE11=The Wild Side Of Life
TTITLE12=I Can Feel The Leaving Coming On
TTITLE13=Patches In Heaven
TTITLE14=That's A No No
TTITLE15=If You Want Me
TTITLE16=Time Can't Erase
TTITLE17=Big Tom Is Still The King
TTITLE18=Papa's Wagon
TTITLE19=Dreaming My Dreams
TTITLE20=Tabernacle Tom
TTITLE21=I Don't Believe You've Met My Baby
TTITLE22=Gentleman On My Mind
TTITLE23=Country Music In My Soul
EXTD=
EXTT0=
EXTT1=
EXTT2=
EXTT3=
EXTT4=
EXTT5=
EXTT6=
EXTT7=
EXTT8=
EXTT9=
EXTT10=
EXTT11=
EXTT12=
EXTT13=
EXTT14=
EXTT15=
EXTT16=
EXTT17=
EXTT18=
EXTT19=
EXTT20=
EXTT21=
EXTT22=
EXTT23=
PLAYORDER=
